<?xml version="1.0" encoding="UTF-8"?>
<!DOCTYPE svg PUBLIC "-//W3C//DTD SVG 1.1//EN" "http://www.w3.org/Graphics/SVG/1.1/DTD/svg11.dtd">
<svg xmlns="http://www.w3.org/2000/svg" version="1.1" width="500px" height="500px" style="shape-rendering:geometricPrecision; text-rendering:geometricPrecision; image-rendering:optimizeQuality; fill-rule:evenodd; clip-rule:evenodd" xmlns:xlink="http://www.w3.org/1999/xlink">
<g><path style="opacity:1" fill="#000000" d="M -0.5,-0.5 C 166.167,-0.5 332.833,-0.5 499.5,-0.5C 499.5,166.167 499.5,332.833 499.5,499.5C 332.833,499.5 166.167,499.5 -0.5,499.5C -0.5,332.833 -0.5,166.167 -0.5,-0.5 Z"/></g>
<g><path style="opacity:1" fill="#bdca21" d="M 234.5,154.5 C 234.511,156.017 235.177,157.184 236.5,158C 235.423,158.47 234.423,158.303 233.5,157.5C 233.489,155.983 232.823,154.816 231.5,154C 232.577,153.53 233.577,153.697 234.5,154.5 Z"/></g>
<g><path style="opacity:1" fill="#525252" d="M 115.5,154.5 C 114.167,154.5 112.833,154.5 111.5,154.5C 111.5,158.5 111.5,162.5 111.5,166.5C 110.515,162.366 110.182,158.032 110.5,153.5C 112.415,153.216 114.081,153.549 115.5,154.5 Z"/></g>
<g><path style="opacity:1" fill="#f5f5f5" d="M 136.5,155.5 C 133.867,156.811 133.867,158.311 136.5,160C 134.808,161.401 134.141,163.234 134.5,165.5C 138.172,166.045 137.838,166.378 133.5,166.5C 133.5,162.5 133.5,158.5 133.5,154.5C 134.791,154.263 135.791,154.596 136.5,155.5 Z"/></g>
<g><path style="opacity:1" fill="#c1c1c1" d="M 138.5,153.5 C 140.144,153.286 141.644,153.62 143,154.5C 143.447,158.768 143.28,162.768 142.5,166.5C 141.749,165.624 141.249,164.624 141,163.5C 140.751,164.624 140.251,165.624 139.5,166.5C 138.508,162.217 138.174,157.884 138.5,153.5 Z"/></g>
<g><path style="opacity:1" fill="#747474" d="M 156.5,155.5 C 155.791,154.596 154.791,154.263 153.5,154.5C 153.5,158.5 153.5,162.5 153.5,166.5C 152.833,166.167 152.167,165.833 151.5,165.5C 151.5,162.167 151.5,158.833 151.5,155.5C 153.194,153.562 155.194,153.229 157.5,154.5C 157.376,155.107 157.043,155.44 156.5,155.5 Z"/></g>
<g><path style="opacity:1" fill="#f4f4f4" d="M 156.5,155.5 C 153.867,156.811 153.867,158.311 156.5,160C 155.008,161.991 154.008,164.158 153.5,166.5C 153.5,162.5 153.5,158.5 153.5,154.5C 154.791,154.263 155.791,154.596 156.5,155.5 Z"/></g>
<g><path style="opacity:1" fill="#d2d2d2" d="M 163.5,159.5 C 164.302,158.048 164.802,156.382 165,154.5C 165.499,158.486 165.666,162.486 165.5,166.5C 164.835,164.631 164.169,162.631 163.5,160.5C 162.833,162.5 162.167,164.5 161.5,166.5C 160.167,162.167 160.167,157.833 161.5,153.5C 162.169,155.631 162.835,157.631 163.5,159.5 Z"/></g>
<g><path style="opacity:1" fill="#5b5b5b" d="M 167.5,154.5 C 167.5,158.167 167.5,161.833 167.5,165.5C 166.833,165.833 166.167,166.167 165.5,166.5C 165.666,162.486 165.499,158.486 165,154.5C 164.802,156.382 164.302,158.048 163.5,159.5C 163.5,157.5 163.5,155.5 163.5,153.5C 164.959,153.433 166.292,153.766 167.5,154.5 Z"/></g>
<g><path style="opacity:1" fill="#dedede" d="M 167.5,154.5 C 169.167,154.5 170.833,154.5 172.5,154.5C 172.665,158.182 172.499,161.848 172,165.5C 170.384,166.801 168.884,166.801 167.5,165.5C 167.5,161.833 167.5,158.167 167.5,154.5 Z"/></g>
<g><path style="opacity:1" fill="#d2d2d2" d="M 182.5,155.5 C 181.834,159.021 181.167,162.687 180.5,166.5C 179.511,162.893 179.177,159.226 179.5,155.5C 180.5,154.167 181.5,154.167 182.5,155.5 Z"/></g>
<g><path style="opacity:1" fill="#6a6a6a" d="M 189.5,154.5 C 187.577,158.029 186.911,162.029 187.5,166.5C 186.167,166.5 184.833,166.5 183.5,166.5C 183.815,162.629 183.482,158.962 182.5,155.5C 181.5,154.167 180.5,154.167 179.5,155.5C 178.833,156.5 178.167,157.5 177.5,158.5C 177.5,157.167 177.5,155.833 177.5,154.5C 181.601,153.209 185.601,153.209 189.5,154.5 Z"/></g>
<g><path style="opacity:1" fill="#e2e2e2" d="M 151.5,155.5 C 151.5,158.833 151.5,162.167 151.5,165.5C 150.116,166.801 148.616,166.801 147,165.5C 146.501,161.848 146.335,158.182 146.5,154.5C 148.415,154.216 150.081,154.549 151.5,155.5 Z"/></g>
<g><path style="opacity:1" fill="#cbcbcb" d="M 194.5,153.5 C 198.252,153.501 199.252,155.167 197.5,158.5C 196.749,157.624 196.249,156.624 196,155.5C 195.333,158.833 195.333,162.167 196,165.5C 197.423,159.097 198.257,159.431 198.5,166.5C 196.833,166.5 195.167,166.5 193.5,166.5C 193.231,162.069 193.564,157.735 194.5,153.5 Z"/></g>
<g><path style="opacity:1" fill="#e4e4e4" d="M 115.5,154.5 C 116.473,156.948 116.806,159.615 116.5,162.5C 115.167,162.5 113.833,162.5 112.5,162.5C 112.768,164.099 112.434,165.432 111.5,166.5C 111.5,162.5 111.5,158.5 111.5,154.5C 112.833,154.5 114.167,154.5 115.5,154.5 Z"/></g>
<g><path style="opacity:1" fill="#252525" d="M 112.5,155.5 C 113.693,155.97 114.36,156.97 114.5,158.5C 114.167,159.5 113.833,160.5 113.5,161.5C 112.534,159.604 112.201,157.604 112.5,155.5 Z"/></g>
<g><path style="opacity:1" fill="#b2b2b2" d="M 124.5,154.5 C 124.959,157.877 125.626,161.211 126.5,164.5C 125.908,167.083 125.242,167.083 124.5,164.5C 123.892,161.855 123.392,159.188 123,156.5C 122.667,159.5 122.333,162.5 122,165.5C 120.644,166.38 119.144,166.714 117.5,166.5C 117.334,162.486 117.501,158.486 118,154.5C 120.403,153.964 122.57,153.964 124.5,154.5 Z"/></g>
<g><path style="opacity:1" fill="#4c4c4c" d="M 148.5,155.5 C 149.777,156.694 150.444,158.36 150.5,160.5C 150.167,162.167 149.833,163.833 149.5,165.5C 148.513,162.232 148.18,158.898 148.5,155.5 Z"/></g>
<g><path style="opacity:1" fill="#353535" d="M 168.5,155.5 C 169.777,156.694 170.444,158.36 170.5,160.5C 170.167,162.167 169.833,163.833 169.5,165.5C 168.513,162.232 168.18,158.898 168.5,155.5 Z"/></g>
<g><path style="opacity:1" fill="#36390d" d="M 234.5,154.5 C 239.833,157.833 239.833,161.167 234.5,164.5C 234.703,162.956 235.37,161.622 236.5,160.5C 236.333,160.167 236.167,159.833 236,159.5C 235.292,160.381 234.458,161.047 233.5,161.5C 233.5,160.167 233.5,158.833 233.5,157.5C 234.423,158.303 235.423,158.47 236.5,158C 235.177,157.184 234.511,156.017 234.5,154.5 Z"/></g>
<g><path style="opacity:1" fill="#a1a1a1" d="M 136.5,155.5 C 135.791,154.596 134.791,154.263 133.5,154.5C 133.5,158.5 133.5,162.5 133.5,166.5C 132.677,163.023 132.177,159.356 132,155.5C 131.895,159.37 131.062,163.037 129.5,166.5C 128.749,165.624 128.249,164.624 128,163.5C 127.617,164.056 127.117,164.389 126.5,164.5C 125.626,161.211 124.959,157.877 124.5,154.5C 125.268,155.263 125.768,156.263 126,157.5C 126.623,153.068 127.623,152.735 129,156.5C 131.253,153.62 134.086,152.954 137.5,154.5C 137.376,155.107 137.043,155.44 136.5,155.5 Z"/></g>
<g><path style="opacity:1" fill="#d4d4d4" d="M 177.5,154.5 C 177.5,155.833 177.5,157.167 177.5,158.5C 176.732,157.737 176.232,156.737 176,155.5C 175.268,157.706 175.935,159.372 178,160.5C 178.495,162.473 178.662,164.473 178.5,166.5C 176.833,166.5 175.167,166.5 173.5,166.5C 173.331,161.959 173.998,161.626 175.5,165.5C 176.429,164.311 176.762,162.978 176.5,161.5C 175.5,161.5 174.5,161.5 173.5,161.5C 173.337,159.143 173.503,156.81 174,154.5C 175.292,153.209 176.458,153.209 177.5,154.5 Z"/></g>
<g><path style="opacity:1" fill="#bcbcbc" d="M 187.5,166.5 C 186.911,162.029 187.577,158.029 189.5,154.5C 189.351,155.552 189.517,156.552 190,157.5C 190.219,156.062 190.719,154.729 191.5,153.5C 192.833,157.833 192.833,162.167 191.5,166.5C 190.066,164.78 189.233,162.78 189,160.5C 188.809,162.708 188.309,164.708 187.5,166.5 Z"/></g>
<g><path style="opacity:1" fill="#afbc1f" d="M 233.5,157.5 C 233.5,158.833 233.5,160.167 233.5,161.5C 231.855,162.479 230.521,163.812 229.5,165.5C 229.167,165.167 228.833,164.833 228.5,164.5C 232.434,161.042 232.434,157.542 228.5,154C 230.225,154.749 231.892,155.915 233.5,157.5 Z"/></g>
<g><path style="opacity:1" fill="#b8c520" d="M 234.5,154.5 C 234.897,153.475 235.563,153.308 236.5,154C 240.576,158.145 240.243,161.978 235.5,165.5C 234.893,165.376 234.56,165.043 234.5,164.5C 239.833,161.167 239.833,157.833 234.5,154.5 Z"/></g>
<g><path style="opacity:1" fill="#bbc821" d="M 234.5,164.5 C 233.577,165.303 232.577,165.47 231.5,165C 232.823,164.184 233.489,163.017 233.5,161.5C 234.458,161.047 235.292,160.381 236,159.5C 236.167,159.833 236.333,160.167 236.5,160.5C 235.37,161.622 234.703,162.956 234.5,164.5 Z"/></g>
<g><path style="opacity:1" fill="#fafafa" d="M 153.5,181.5 C 153.5,192.167 153.5,202.833 153.5,213.5C 148.5,213.5 143.5,213.5 138.5,213.5C 138.5,207.833 138.5,202.167 138.5,196.5C 117.334,195.499 107.5,205.499 109,226.5C 111.285,238.948 118.785,245.614 131.5,246.5C 138.648,247.492 145.981,247.825 153.5,247.5C 153.5,252.167 153.5,256.833 153.5,261.5C 143.117,261.838 132.784,261.338 122.5,260C 101.993,254.826 92.3259,241.659 93.5,220.5C 93.3725,197.607 104.706,184.774 127.5,182C 136.16,181.5 144.827,181.334 153.5,181.5 Z"/></g>
<g><path style="opacity:1" fill="#fdfdfd" d="M 157.5,181.5 C 162.5,181.5 167.5,181.5 172.5,181.5C 172.5,198.167 172.5,214.833 172.5,231.5C 167.5,231.5 162.5,231.5 157.5,231.5C 157.5,214.833 157.5,198.167 157.5,181.5 Z"/></g>
<g><path style="opacity:1" fill="#f8f8f8" d="M 233.5,181.5 C 266.769,180.269 282.269,196.269 280,229.5C 274.014,253.792 258.514,264.292 233.5,261C 219.131,256.966 209.631,247.799 205,233.5C 199.88,207.861 209.38,190.528 233.5,181.5 Z"/></g>
<g><path style="opacity:1" fill="#fbfbfb" d="M 329.5,181.5 C 334.5,181.5 339.5,181.5 344.5,181.5C 344.667,201.503 344.5,221.503 344,241.5C 340.541,252.624 333.041,259.124 321.5,261C 304.004,264.008 291.838,257.508 285,241.5C 284.5,226.17 284.333,210.837 284.5,195.5C 289.5,195.5 294.5,195.5 299.5,195.5C 299.051,209.906 299.551,224.239 301,238.5C 305.301,246.114 311.801,248.614 320.5,246C 324.275,244.558 327.108,242.058 329,238.5C 329.5,219.503 329.667,200.503 329.5,181.5 Z"/></g>
<g><path style="opacity:1" fill="#fbfbfb" d="M 347.5,181.5 C 357.878,181.196 368.211,181.696 378.5,183C 398.885,187.392 408.885,200.059 408.5,221C 408.482,245.022 396.482,258.355 372.5,261C 364.173,261.5 355.84,261.666 347.5,261.5C 347.5,250.833 347.5,240.167 347.5,229.5C 352.5,229.5 357.5,229.5 362.5,229.5C 362.5,235.167 362.5,240.833 362.5,246.5C 387.815,246.579 397.315,234.246 391,209.5C 384.42,199.126 374.92,194.793 362.5,196.5C 362.5,202.167 362.5,207.833 362.5,213.5C 357.5,213.5 352.5,213.5 347.5,213.5C 347.5,202.833 347.5,192.167 347.5,181.5 Z"/></g>
<g><path style="opacity:1" fill="#7e7e7e" d="M 153.5,181.5 C 154.495,192.321 154.828,203.321 154.5,214.5C 148.974,214.821 143.64,214.488 138.5,213.5C 143.5,213.5 148.5,213.5 153.5,213.5C 153.5,202.833 153.5,192.167 153.5,181.5 Z"/></g>
<g><path style="opacity:1" fill="#040404" d="M 236.5,195.5 C 257.383,195.224 266.883,205.558 265,226.5C 261.157,243.513 250.657,250.013 233.5,246C 223.804,240.781 219.137,232.615 219.5,221.5C 219.192,208.753 224.858,200.086 236.5,195.5 Z"/></g>
<g><path style="opacity:1" fill="#f4f4f4" d="M 238.5,214.5 C 244.766,213.117 248.433,215.45 249.5,221.5C 248.871,227.631 245.538,230.131 239.5,229C 233.281,224.533 232.948,219.699 238.5,214.5 Z"/></g>
<g><path style="opacity:1" fill="#acacac" d="M 131.5,246.5 C 139.167,246.5 146.833,246.5 154.5,246.5C 154.821,251.695 154.487,256.695 153.5,261.5C 153.5,256.833 153.5,252.167 153.5,247.5C 145.981,247.825 138.648,247.492 131.5,246.5 Z"/></g>
<g><path style="opacity:1" fill="#fcfcfc" d="M 157.5,246.5 C 172.167,246.5 186.833,246.5 201.5,246.5C 201.5,251.5 201.5,256.5 201.5,261.5C 186.833,261.5 172.167,261.5 157.5,261.5C 157.5,256.5 157.5,251.5 157.5,246.5 Z"/></g>
<g><path style="opacity:1" fill="#fafafa" d="M 88.5,294.5 C 87.5084,301.648 87.175,308.981 87.5,316.5C 100.167,316.5 112.833,316.5 125.5,316.5C 126.489,321.975 126.822,327.642 126.5,333.5C 113.833,333.5 101.167,333.5 88.5,333.5C 88.5,346.5 88.5,359.5 88.5,372.5C 82.1667,372.5 75.8333,372.5 69.5,372.5C 69.5,340.833 69.5,309.167 69.5,277.5C 84.8333,277.5 100.167,277.5 115.5,277.5C 115.5,283.167 115.5,288.833 115.5,294.5C 106.5,294.5 97.5,294.5 88.5,294.5 Z"/></g>
<g><path style="opacity:1" fill="#fcfcfc" d="M 129.5,277.5 C 136.508,277.334 143.508,277.5 150.5,278C 158.006,288.332 165.672,298.499 173.5,308.5C 176.5,304.5 179.5,300.5 182.5,296.5C 190.145,295.335 197.812,295.169 205.5,296C 197.632,306.236 190.132,316.736 183,327.5C 182.5,342.496 182.333,357.496 182.5,372.5C 176.5,372.5 170.5,372.5 164.5,372.5C 164.667,357.496 164.5,342.496 164,327.5C 151.864,311.21 140.364,294.544 129.5,277.5 Z"/></g>
<g><path style="opacity:1" fill="#f9f9f9" d="M 208.5,277.5 C 222.171,277.333 235.837,277.5 249.5,278C 267.447,281.963 275.281,293.129 273,311.5C 270.455,320.712 264.955,327.545 256.5,332C 261.589,344.345 267.089,356.511 273,368.5C 273.49,369.793 273.657,371.127 273.5,372.5C 267.132,372.83 260.798,372.496 254.5,371.5C 248.726,359.619 243.226,347.619 238,335.5C 234.606,334.544 231.106,334.211 227.5,334.5C 227.667,346.838 227.5,359.171 227,371.5C 221.25,372.641 215.416,372.807 209.5,372C 208.507,353.576 208.174,335.076 208.5,316.5C 221.171,316.667 233.838,316.5 246.5,316C 254.496,313.024 256.663,307.524 253,299.5C 250.705,297.062 247.872,295.562 244.5,295C 232.505,294.5 220.505,294.333 208.5,294.5C 208.5,288.833 208.5,283.167 208.5,277.5 Z"/></g>
<g><path style="opacity:1" fill="#fdfdfd" d="M 277.5,277.5 C 292.5,277.5 307.5,277.5 322.5,277.5C 322.5,283.167 322.5,288.833 322.5,294.5C 313.5,294.5 304.5,294.5 295.5,294.5C 295.5,301.833 295.5,309.167 295.5,316.5C 308.5,316.5 321.5,316.5 334.5,316.5C 334.807,322.093 334.473,327.593 333.5,333C 320.838,333.5 308.171,333.667 295.5,333.5C 295.5,340.5 295.5,347.5 295.5,354.5C 304.5,354.5 313.5,354.5 322.5,354.5C 322.5,360.5 322.5,366.5 322.5,372.5C 307.5,372.5 292.5,372.5 277.5,372.5C 277.5,340.833 277.5,309.167 277.5,277.5 Z"/></g>
<g><path style="opacity:1" fill="#fafafa" d="M 403.5,277.5 C 410.863,277.169 418.197,277.503 425.5,278.5C 414.291,293.872 403.291,309.372 392.5,325C 399.346,334.351 406.013,343.851 412.5,353.5C 405.189,354.665 397.856,354.831 390.5,354C 387.456,349.412 384.29,344.912 381,340.5C 373.868,351.264 366.368,361.764 358.5,372C 351.508,372.5 344.508,372.666 337.5,372.5C 337.608,370.217 338.441,368.217 340,366.5C 349.962,352.737 359.795,338.904 369.5,325C 362.962,315.43 356.295,305.93 349.5,296.5C 356.811,295.335 364.144,295.169 371.5,296C 374.294,300.624 377.627,304.791 381.5,308.5C 388.858,298.149 396.192,287.815 403.5,277.5 Z"/></g>
<g><path style="opacity:1" fill="#7a7a7a" d="M 88.5,294.5 C 88.5,301.5 88.5,308.5 88.5,315.5C 101.011,315.171 113.345,315.505 125.5,316.5C 112.833,316.5 100.167,316.5 87.5,316.5C 87.175,308.981 87.5084,301.648 88.5,294.5 Z"/></g>
</svg>
