<?xml version="1.0" encoding="UTF-8"?>
<!DOCTYPE svg PUBLIC "-//W3C//DTD SVG 1.1//EN" "http://www.w3.org/Graphics/SVG/1.1/DTD/svg11.dtd">
<svg xmlns="http://www.w3.org/2000/svg" version="1.1" width="500px" height="500px" style="shape-rendering:geometricPrecision; text-rendering:geometricPrecision; image-rendering:optimizeQuality; fill-rule:evenodd; clip-rule:evenodd" xmlns:xlink="http://www.w3.org/1999/xlink">
<g><path style="opacity:0.995" fill="#f6f6f6" d="M 153.5,181.5 C 153.5,192.167 153.5,202.833 153.5,213.5C 148.5,213.5 143.5,213.5 138.5,213.5C 138.5,207.833 138.5,202.167 138.5,196.5C 117.841,195.326 108.008,204.993 109,225.5C 110.848,238.513 118.348,245.513 131.5,246.5C 138.648,247.492 145.981,247.825 153.5,247.5C 153.5,252.167 153.5,256.833 153.5,261.5C 144.827,261.666 136.16,261.5 127.5,261C 104.638,257.786 92.9711,244.619 92.5,221.5C 92.691,198.143 104.358,184.977 127.5,182C 136.16,181.5 144.827,181.334 153.5,181.5 Z"/></g>
<g><path style="opacity:0.989" fill="#f2f2f2" d="M 157.5,181.5 C 162.5,181.5 167.5,181.5 172.5,181.5C 172.5,198.167 172.5,214.833 172.5,231.5C 167.167,231.5 161.833,231.5 156.5,231.5C 156.182,214.756 156.515,198.089 157.5,181.5 Z"/></g>
<g><path style="opacity:0.994" fill="#f2f2f2" d="M 233.5,181.5 C 262.511,179.176 278.511,192.509 281.5,221.5C 278.534,250.64 262.534,263.807 233.5,261C 218.444,257.611 208.944,248.445 205,233.5C 200.858,216.268 205.024,201.435 217.5,189C 222.542,185.643 227.876,183.143 233.5,181.5 Z M 235.5,196.5 C 256.536,195.37 266.369,205.37 265,226.5C 260.407,243.778 249.573,249.945 232.5,245C 225.81,241.47 221.643,235.97 220,228.5C 217.497,213.843 222.664,203.176 235.5,196.5 Z"/></g>
<g><path style="opacity:0.992" fill="#f0f0f0" d="M 329.5,181.5 C 334.5,181.5 339.5,181.5 344.5,181.5C 344.667,201.836 344.5,222.169 344,242.5C 340.224,252.609 333.057,258.776 322.5,261C 309.289,263.743 298.122,260.243 289,250.5C 287.392,247.618 286.059,244.618 285,241.5C 284.5,226.17 284.333,210.837 284.5,195.5C 289.762,195.195 294.928,195.529 300,196.5C 300.333,210.5 300.667,224.5 301,238.5C 305.021,245.067 310.854,247.567 318.5,246C 322.664,245.177 325.831,243.01 328,239.5C 328.179,220.094 328.679,200.76 329.5,181.5 Z"/></g>
<g><path style="opacity:0.992" fill="#f3f3f3" d="M 347.5,181.5 C 356.506,181.334 365.506,181.5 374.5,182C 397.118,185.38 408.451,198.546 408.5,221.5C 408.34,244.828 396.673,257.995 373.5,261C 364.84,261.5 356.173,261.666 347.5,261.5C 347.5,250.5 347.5,239.5 347.5,228.5C 352.762,228.195 357.928,228.529 363,229.5C 363.499,235.157 363.666,240.824 363.5,246.5C 388.832,245.53 397.665,232.864 390,208.5C 383.592,199.409 374.759,195.409 363.5,196.5C 363.666,202.176 363.499,207.843 363,213.5C 357.928,214.471 352.762,214.805 347.5,214.5C 347.5,203.5 347.5,192.5 347.5,181.5 Z"/></g>
<g><path style="opacity:0.235" fill="#6c6c6c" d="M 153.5,181.5 C 154.495,192.321 154.828,203.321 154.5,214.5C 148.974,214.821 143.64,214.488 138.5,213.5C 143.5,213.5 148.5,213.5 153.5,213.5C 153.5,202.833 153.5,192.167 153.5,181.5 Z"/></g>
<g><path style="opacity:0.986" fill="#e6e6e6" d="M 240.5,213.5 C 246.114,213.612 249.448,216.446 250.5,222C 248.862,227.654 245.196,229.987 239.5,229C 235.139,226.774 233.639,223.274 235,218.5C 236.352,216.251 238.185,214.584 240.5,213.5 Z"/></g>
<g><path style="opacity:0.616" fill="#acacac" d="M 131.5,246.5 C 139.167,246.5 146.833,246.5 154.5,246.5C 154.821,251.695 154.487,256.695 153.5,261.5C 153.5,256.833 153.5,252.167 153.5,247.5C 145.981,247.825 138.648,247.492 131.5,246.5 Z"/></g>
<g><path style="opacity:0.988" fill="#f8f8f8" d="M 156.5,246.5 C 171.5,246.5 186.5,246.5 201.5,246.5C 201.5,251.5 201.5,256.5 201.5,261.5C 186.83,261.667 172.163,261.5 157.5,261C 156.531,256.263 156.197,251.43 156.5,246.5 Z"/></g>
<g><path style="opacity:0.998" fill="#f5f5f5" d="M 88.5,294.5 C 87.5084,301.648 87.175,308.981 87.5,316.5C 100.5,316.5 113.5,316.5 126.5,316.5C 127.811,322 127.811,327.5 126.5,333C 113.838,333.5 101.171,333.667 88.5,333.5C 88.5,346.5 88.5,359.5 88.5,372.5C 82.1667,372.5 75.8333,372.5 69.5,372.5C 69.3334,340.832 69.5,309.165 70,277.5C 84.7587,276.343 99.5921,276.177 114.5,277C 115.475,282.741 115.808,288.575 115.5,294.5C 106.5,294.5 97.5,294.5 88.5,294.5 Z"/></g>
<g><path style="opacity:0.994" fill="#f4f4f4" d="M 130.5,276.5 C 137.615,276.075 144.615,276.575 151.5,278C 158.79,288.079 165.956,298.246 173,308.5C 176.531,304.603 179.697,300.436 182.5,296C 190.167,295.333 197.833,295.333 205.5,296C 198.123,306.588 190.623,317.088 183,327.5C 182.5,342.496 182.333,357.496 182.5,372.5C 176.242,372.81 170.076,372.476 164,371.5C 163.667,356.5 163.333,341.5 163,326.5C 151.5,310.333 140,294.167 128.5,278C 129.416,277.722 130.082,277.222 130.5,276.5 Z"/></g>
<g><path style="opacity:0.995" fill="#f4f4f4" d="M 209.5,276.5 C 221.171,276.333 232.838,276.5 244.5,277C 269.305,280.418 278.139,294.252 271,318.5C 267.613,324.722 262.779,329.388 256.5,332.5C 262.774,345.38 268.774,358.38 274.5,371.5C 267.858,372.664 261.192,372.831 254.5,372C 248.934,359.808 243.267,347.641 237.5,335.5C 234.232,334.513 230.898,334.18 227.5,334.5C 227.5,347.167 227.5,359.833 227.5,372.5C 221.167,372.5 214.833,372.5 208.5,372.5C 208.5,353.833 208.5,335.167 208.5,316.5C 220.505,316.667 232.505,316.5 244.5,316C 253.802,313.896 256.636,308.396 253,299.5C 251.421,297.959 249.587,296.792 247.5,296C 234.546,294.623 221.546,294.123 208.5,294.5C 208.211,288.409 208.545,282.409 209.5,276.5 Z"/></g>
<g><path style="opacity:0.997" fill="#f4f4f4" d="M 278.5,276.5 C 293.167,276.5 307.833,276.5 322.5,276.5C 322.5,282.5 322.5,288.5 322.5,294.5C 313.5,294.5 304.5,294.5 295.5,294.5C 295.5,301.5 295.5,308.5 295.5,315.5C 308.171,315.333 320.838,315.5 333.5,316C 334.475,321.741 334.808,327.575 334.5,333.5C 321.5,333.5 308.5,333.5 295.5,333.5C 295.5,340.5 295.5,347.5 295.5,354.5C 304.5,354.5 313.5,354.5 322.5,354.5C 322.5,360.5 322.5,366.5 322.5,372.5C 307.255,372.824 292.089,372.491 277,371.5C 276.333,340.5 276.333,309.5 277,278.5C 277.717,277.956 278.217,277.289 278.5,276.5 Z"/></g>
<g><path style="opacity:0.992" fill="#f4f4f4" d="M 404.5,276.5 C 411.175,276.334 417.842,276.5 424.5,277C 424.957,277.414 425.291,277.914 425.5,278.5C 414.869,294.264 403.869,309.764 392.5,325C 399.5,334.667 406.5,344.333 413.5,354C 405.833,354.667 398.167,354.667 390.5,354C 387.697,349.564 384.531,345.397 381,341.5C 373.639,351.361 366.473,361.361 359.5,371.5C 351.833,372.833 344.167,372.833 336.5,371.5C 347.623,356.088 358.623,340.588 369.5,325C 362.5,315.333 355.5,305.667 348.5,296C 356.521,295.168 364.521,295.335 372.5,296.5C 375.528,300.361 378.361,304.361 381,308.5C 388.61,297.588 396.444,286.921 404.5,276.5 Z"/></g>
<g><path style="opacity:0.345" fill="#797979" d="M 88.5,294.5 C 88.5,301.5 88.5,308.5 88.5,315.5C 101.344,315.171 114.011,315.505 126.5,316.5C 113.5,316.5 100.5,316.5 87.5,316.5C 87.175,308.981 87.5084,301.648 88.5,294.5 Z"/></g>
</svg>
